<svg version="1.1" id="Capa_1" xmlns="http://www.w3.org/2000/svg" xmlns:xlink="http://www.w3.org/1999/xlink" x="0px" y="0px" width="453px" height="291.214px" viewBox="733.5 80.893 453 291.214" enable-background="new 733.5 80.893 453 291.214" xml:space="preserve"><g><g><path d="M1178.831,115.661c-4.77-2.949-10.727-3.219-15.742-0.712l-106.018,53.017v-38.538c0-26.806-21.73-48.536-48.536-48.536h-226.5c-26.805,0-48.535,21.73-48.535,48.536v194.143c0,26.805,21.73,48.535,48.535,48.535h226.5c26.806,0,48.536-21.73,48.536-48.535v-38.538l106.018,53.099c7.993,3.993,17.71,0.753,21.705-7.241c1.136-2.271,1.721-4.78,1.706-7.319V129.428C1186.503,123.82,1183.602,118.611,1178.831,115.661z M1024.714,323.571c0,8.936-7.243,16.179-16.179,16.179h-226.5c-8.935,0-16.179-7.243-16.179-16.179V129.428c0-8.936,7.244-16.179,16.179-16.179h226.5c8.936,0,16.179,7.243,16.179,16.179V323.571z M1154.143,297.395l-97.071-48.535v-44.718l97.071-48.536V297.395z"/></g></g></svg>