<?xml version="1.0" encoding="utf-8"?>
<!-- Generator: Adobe Illustrator 16.0.0, SVG Export Plug-In . SVG Version: 6.00 Build 0)  -->
<!DOCTYPE svg PUBLIC "-//W3C//DTD SVG 1.1//EN" "http://www.w3.org/Graphics/SVG/1.1/DTD/svg11.dtd">
<svg version="1.1" id="Capa_1" xmlns="http://www.w3.org/2000/svg" xmlns:xlink="http://www.w3.org/1999/xlink" x="0px" y="0px"
	 width="372.113px" height="289.494px" viewBox="49.299 10.329 372.113 289.494"
	 enable-background="new 49.299 10.329 372.113 289.494" xml:space="preserve">
<g>
	<g>
		<g>
			<path d="M415.22,60.513c-3.852-2.381-8.661-2.599-12.71-0.575l-85.599,42.806V71.628c0-21.643-17.545-39.188-39.188-39.188
				H94.848c-21.642,0-39.187,17.545-39.187,39.188v156.751c0,21.642,17.545,39.187,39.187,39.187h182.876
				c21.643,0,39.188-17.545,39.188-39.187v-31.116l85.599,42.872c6.453,3.224,14.299,0.607,17.524-5.847
				c0.917-1.833,1.39-3.859,1.378-5.909V71.628C421.414,67.1,419.071,62.895,415.22,60.513z M290.786,228.379
				c0,7.215-5.849,13.062-13.063,13.062H94.848c-7.214,0-13.063-5.847-13.063-13.062V71.628c0-7.214,5.849-13.063,13.063-13.063
				h182.876c7.214,0,13.063,5.848,13.063,13.063V228.379z M395.286,207.245l-78.374-39.188v-36.105l78.374-39.188V207.245z"/>
		</g>
	</g>
	<g>
		<g>
			<g>
				<path d="M69.659,295.823c-0.297,0-0.593-0.009-0.889-0.024c-4.403-0.243-8.422-2.173-11.32-5.432
					c-6.005-6.731-5.433-17.103,1.281-23.114L329.549,18.541c3.061-2.73,6.94-4.212,10.968-4.212c4.646,0,9.09,1.986,12.194,5.449
					c6.025,6.729,5.455,17.102-1.27,23.126L80.603,291.614C77.561,294.339,73.688,295.823,69.659,295.823
					C69.659,295.823,69.659,295.823,69.659,295.823z"/>
				<path fill="#FFFFFF" d="M340.518,18.329c3.393,0,6.769,1.39,9.215,4.119c4.563,5.095,4.133,12.915-0.96,17.477L77.897,288.667
					c-2.355,2.11-5.31,3.155-8.238,3.155c-0.224,0-0.448-0.007-0.671-0.019c-3.181-0.176-6.295-1.561-8.549-4.096
					c-4.562-5.113-4.133-12.916,0.96-17.477L332.255,21.487C334.628,19.371,337.579,18.329,340.518,18.329 M340.518,10.329
					c-5.012,0-9.837,1.842-13.588,5.188l-0.043,0.039l-0.043,0.04L56.022,264.308c-8.315,7.486-9.015,20.36-1.552,28.726
					c3.603,4.053,8.605,6.456,14.077,6.759c0.373,0.02,0.743,0.03,1.112,0.03c5.015,0,9.836-1.846,13.576-5.197l0.037-0.032
					l0.036-0.033L354.152,45.846c8.327-7.501,9.022-20.379,1.54-28.735C351.827,12.8,346.297,10.329,340.518,10.329L340.518,10.329z
					"/>
			</g>
		</g>
	</g>
</g>
</svg>
